<svg xmlns="http://www.w3.org/2000/svg" xmlns:xlink="http://www.w3.org/1999/xlink" width="500" zoomAndPan="magnify" viewBox="0 0 375 374.999991" height="500" preserveAspectRatio="xMidYMid meet" version="1.2"><defs><clipPath id="29e2857116"><path d="M 0.40625 0.492188 L 47.402344 0.492188 L 47.402344 47.488281 L 0.40625 47.488281 Z M 0.40625 0.492188 "/></clipPath><clipPath id="1ec99bf354"><path d="M 0.40625 0.492188 L 47.175781 0.492188 L 47.175781 47.261719 L 0.40625 47.261719 Z M 0.40625 0.492188 "/></clipPath><clipPath id="a87bf86591"><rect x="0" width="48" y="0" height="48"/></clipPath><clipPath id="510a71232e"><path d="M 30.503906 30.585938 L 47.371094 30.585938 L 47.371094 47.457031 L 30.503906 47.457031 Z M 30.503906 30.585938 "/></clipPath><clipPath id="af6be1b7db"><path d="M 63 0.441406 L 282.480469 0.441406 L 282.480469 48.441406 L 63 48.441406 Z M 63 0.441406 "/></clipPath><clipPath id="f03f0562c1"><path d="M 0.121094 3 L 20 3 L 20 38 L 0.121094 38 Z M 0.121094 3 "/></clipPath><clipPath id="6d1dce3f01"><rect x="0" width="220" y="0" height="49"/></clipPath><clipPath id="ece5aede83"><rect x="0" width="283" y="0" height="49"/></clipPath></defs><g id="7b161d7482"><g transform="matrix(1,0,0,1,48,163)"><g clip-path="url(#ece5aede83)"><g clip-rule="nonzero" clip-path="url(#29e2857116)"><g><g id="d27c887567" clip-path="url(#a87bf86591)"><g clip-rule="nonzero" clip-path="url(#1ec99bf354)"><path style=" stroke:none;fill-rule:nonzero;fill:#ffffff;fill-opacity:1;" d="M 0.40625 47.261719 C 26.238281 47.261719 47.175781 26.320312 47.175781 0.492188 L 0.40625 0.492188 Z M 0.40625 47.261719 "/></g></g></g></g><g clip-rule="nonzero" clip-path="url(#510a71232e)"><path style=" stroke:none;fill-rule:nonzero;fill:#ffffff;fill-opacity:1;" d="M 47.183594 30.585938 C 37.972656 30.585938 30.503906 38.054688 30.503906 47.269531 L 47.183594 47.269531 Z M 47.183594 30.585938 "/></g><g clip-rule="nonzero" clip-path="url(#af6be1b7db)"><g transform="matrix(1,0,0,1,63,0)"><g id="a3f749ccc8" clip-path="url(#6d1dce3f01)"><g clip-rule="nonzero" clip-path="url(#f03f0562c1)"><g style="fill:#ffffff;fill-opacity:1;"><g transform="translate(0.121923, 37.616945)"><path style="stroke:none" d="M 19.78125 0 L 14.4375 0 C 13.65625 0 12.847656 -0.0703125 12.015625 -0.21875 C 11.191406 -0.363281 10.40625 -0.628906 9.65625 -1.015625 C 8.90625 -1.410156 8.234375 -1.976562 7.640625 -2.71875 C 7.054688 -3.457031 6.585938 -4.421875 6.234375 -5.609375 C 5.890625 -6.796875 5.71875 -8.253906 5.71875 -9.984375 L 5.71875 -20.953125 L 0.28125 -20.953125 L 0.28125 -26.265625 L 5.71875 -26.265625 L 5.71875 -33.953125 L 11.90625 -34.015625 L 11.90625 -26.265625 L 19.78125 -26.265625 L 19.78125 -20.953125 L 11.90625 -20.953125 L 11.90625 -9.703125 C 11.90625 -8.484375 12.082031 -7.539062 12.4375 -6.875 C 12.800781 -6.207031 13.273438 -5.75 13.859375 -5.5 C 14.453125 -5.257812 15.070312 -5.140625 15.71875 -5.140625 L 19.78125 -5.140625 Z M 19.78125 0 "/></g></g></g><g style="fill:#ffffff;fill-opacity:1;"><g transform="translate(17.822041, 37.616945)"><path style="stroke:none" d="M 14.125 0.796875 C 12.351562 0.796875 10.710938 0.4375 9.203125 -0.28125 C 7.703125 -1 6.394531 -1.992188 5.28125 -3.265625 C 4.164062 -4.546875 3.300781 -6.03125 2.6875 -7.71875 C 2.070312 -9.40625 1.765625 -11.210938 1.765625 -13.140625 C 1.765625 -15.054688 2.070312 -16.851562 2.6875 -18.53125 C 3.3125 -20.207031 4.179688 -21.6875 5.296875 -22.96875 C 6.410156 -24.25 7.71875 -25.25 9.21875 -25.96875 C 10.71875 -26.695312 12.347656 -27.0625 14.109375 -27.0625 C 16.253906 -27.0625 18.160156 -26.59375 19.828125 -25.65625 C 21.492188 -24.726562 22.742188 -23.453125 23.578125 -21.828125 L 23.578125 -26.265625 L 29.453125 -26.265625 L 29.453125 0 L 23.578125 0 L 23.578125 -4.421875 C 22.734375 -2.785156 21.476562 -1.503906 19.8125 -0.578125 C 18.15625 0.335938 16.257812 0.796875 14.125 0.796875 Z M 15.609375 -4.9375 C 16.679688 -4.9375 17.6875 -5.144531 18.625 -5.5625 C 19.5625 -5.976562 20.382812 -6.554688 21.09375 -7.296875 C 21.800781 -8.035156 22.347656 -8.898438 22.734375 -9.890625 C 23.128906 -10.890625 23.328125 -11.972656 23.328125 -13.140625 C 23.328125 -14.273438 23.125 -15.335938 22.71875 -16.328125 C 22.320312 -17.328125 21.773438 -18.203125 21.078125 -18.953125 C 20.378906 -19.703125 19.5625 -20.285156 18.625 -20.703125 C 17.6875 -21.117188 16.679688 -21.328125 15.609375 -21.328125 C 14.191406 -21.328125 12.898438 -20.988281 11.734375 -20.3125 C 10.566406 -19.632812 9.632812 -18.679688 8.9375 -17.453125 C 8.238281 -16.222656 7.890625 -14.785156 7.890625 -13.140625 C 7.890625 -11.429688 8.242188 -9.960938 8.953125 -8.734375 C 9.660156 -7.515625 10.601562 -6.578125 11.78125 -5.921875 C 12.957031 -5.265625 14.234375 -4.9375 15.609375 -4.9375 Z M 15.609375 -4.9375 "/></g></g><g style="fill:#ffffff;fill-opacity:1;"><g transform="translate(47.453259, 37.616945)"><path style="stroke:none" d="M 9.8125 0 L 3.625 0 L 3.625 -26.265625 L 9.5 -26.265625 L 9.5 -22.171875 C 10.007812 -23.128906 10.707031 -23.972656 11.59375 -24.703125 C 12.476562 -25.441406 13.507812 -26.019531 14.6875 -26.4375 C 15.863281 -26.851562 17.125 -27.0625 18.46875 -27.0625 C 22 -27.0625 24.640625 -25.941406 26.390625 -23.703125 C 28.148438 -21.460938 29.03125 -18.28125 29.03125 -14.15625 L 29.03125 0 L 22.84375 0 L 22.84375 -14.03125 C 22.84375 -16.632812 22.296875 -18.503906 21.203125 -19.640625 C 20.117188 -20.785156 18.640625 -21.359375 16.765625 -21.359375 C 15.554688 -21.359375 14.421875 -21.050781 13.359375 -20.4375 C 12.304688 -19.820312 11.453125 -18.925781 10.796875 -17.75 C 10.140625 -16.582031 9.8125 -15.140625 9.8125 -13.421875 Z M 9.8125 0 "/></g></g><g style="fill:#ffffff;fill-opacity:1;"><g transform="translate(76.445767, 37.616945)"><path style="stroke:none" d="M 15.65625 9.96875 C 13.414062 9.96875 11.492188 9.6875 9.890625 9.125 C 8.285156 8.5625 6.972656 7.800781 5.953125 6.84375 C 4.929688 5.894531 4.164062 4.820312 3.65625 3.625 C 3.15625 2.4375 2.882812 1.21875 2.84375 -0.03125 L 8.65625 -0.03125 C 8.84375 0.894531 9.179688 1.710938 9.671875 2.421875 C 10.171875 3.140625 10.898438 3.707031 11.859375 4.125 C 12.828125 4.539062 14.085938 4.75 15.640625 4.75 C 17.066406 4.75 18.28125 4.546875 19.28125 4.140625 C 20.289062 3.734375 21.109375 3.171875 21.734375 2.453125 C 22.367188 1.734375 22.832031 0.910156 23.125 -0.015625 C 23.414062 -0.941406 23.5625 -1.914062 23.5625 -2.9375 L 23.5625 -5.625 C 22.675781 -3.90625 21.425781 -2.644531 19.8125 -1.84375 C 18.207031 -1.039062 16.425781 -0.640625 14.46875 -0.640625 C 12.601562 -0.640625 10.890625 -0.976562 9.328125 -1.65625 C 7.773438 -2.34375 6.4375 -3.28125 5.3125 -4.46875 C 4.1875 -5.664062 3.3125 -7.050781 2.6875 -8.625 C 2.070312 -10.195312 1.765625 -11.878906 1.765625 -13.671875 C 1.765625 -15.460938 2.070312 -17.15625 2.6875 -18.75 C 3.300781 -20.351562 4.164062 -21.78125 5.28125 -23.03125 C 6.394531 -24.28125 7.710938 -25.265625 9.234375 -25.984375 C 10.753906 -26.703125 12.425781 -27.0625 14.25 -27.0625 C 15.820312 -27.0625 17.222656 -26.804688 18.453125 -26.296875 C 19.691406 -25.796875 20.738281 -25.144531 21.59375 -24.34375 C 22.457031 -23.550781 23.117188 -22.703125 23.578125 -21.796875 L 23.578125 -26.265625 L 29.453125 -26.265625 L 29.453125 -3.015625 C 29.453125 -1.171875 29.15625 0.535156 28.5625 2.109375 C 27.96875 3.679688 27.082031 5.054688 25.90625 6.234375 C 24.726562 7.410156 23.285156 8.328125 21.578125 8.984375 C 19.867188 9.640625 17.894531 9.96875 15.65625 9.96875 Z M 15.609375 -6 C 16.679688 -6 17.6875 -6.195312 18.625 -6.59375 C 19.5625 -7 20.382812 -7.5625 21.09375 -8.28125 C 21.800781 -9 22.347656 -9.820312 22.734375 -10.75 C 23.128906 -11.675781 23.328125 -12.65625 23.328125 -13.6875 C 23.328125 -14.71875 23.128906 -15.691406 22.734375 -16.609375 C 22.347656 -17.523438 21.804688 -18.335938 21.109375 -19.046875 C 20.410156 -19.753906 19.59375 -20.3125 18.65625 -20.71875 C 17.71875 -21.125 16.703125 -21.328125 15.609375 -21.328125 C 14.160156 -21.328125 12.851562 -21.003906 11.6875 -20.359375 C 10.519531 -19.710938 9.59375 -18.816406 8.90625 -17.671875 C 8.226562 -16.535156 7.890625 -15.207031 7.890625 -13.6875 C 7.890625 -12.207031 8.226562 -10.890625 8.90625 -9.734375 C 9.59375 -8.578125 10.519531 -7.664062 11.6875 -7 C 12.851562 -6.332031 14.160156 -6 15.609375 -6 Z M 15.609375 -6 "/></g></g><g style="fill:#ffffff;fill-opacity:1;"><g transform="translate(106.076985, 37.616945)"><path style="stroke:none" d="M 15.5625 0.796875 C 13.570312 0.796875 11.734375 0.4375 10.046875 -0.28125 C 8.359375 -1 6.894531 -1.992188 5.65625 -3.265625 C 4.425781 -4.546875 3.46875 -6.03125 2.78125 -7.71875 C 2.101562 -9.40625 1.765625 -11.210938 1.765625 -13.140625 C 1.765625 -15.054688 2.101562 -16.851562 2.78125 -18.53125 C 3.46875 -20.207031 4.425781 -21.6875 5.65625 -22.96875 C 6.894531 -24.25 8.359375 -25.25 10.046875 -25.96875 C 11.734375 -26.695312 13.582031 -27.0625 15.59375 -27.0625 C 17.613281 -27.0625 19.46875 -26.695312 21.15625 -25.96875 C 22.84375 -25.25 24.304688 -24.25 25.546875 -22.96875 C 26.796875 -21.6875 27.757812 -20.207031 28.4375 -18.53125 C 29.113281 -16.851562 29.453125 -15.054688 29.453125 -13.140625 C 29.453125 -11.191406 29.113281 -9.378906 28.4375 -7.703125 C 27.757812 -6.023438 26.796875 -4.546875 25.546875 -3.265625 C 24.304688 -1.992188 22.835938 -1 21.140625 -0.28125 C 19.441406 0.4375 17.582031 0.796875 15.5625 0.796875 Z M 15.609375 -4.953125 C 17.085938 -4.953125 18.40625 -5.304688 19.5625 -6.015625 C 20.726562 -6.722656 21.644531 -7.6875 22.3125 -8.90625 C 22.988281 -10.132812 23.328125 -11.546875 23.328125 -13.140625 C 23.328125 -14.722656 22.988281 -16.128906 22.3125 -17.359375 C 21.644531 -18.597656 20.726562 -19.566406 19.5625 -20.265625 C 18.40625 -20.972656 17.085938 -21.328125 15.609375 -21.328125 C 14.148438 -21.328125 12.832031 -20.972656 11.65625 -20.265625 C 10.488281 -19.566406 9.566406 -18.597656 8.890625 -17.359375 C 8.222656 -16.128906 7.890625 -14.722656 7.890625 -13.140625 C 7.890625 -11.546875 8.222656 -10.132812 8.890625 -8.90625 C 9.566406 -7.6875 10.488281 -6.722656 11.65625 -6.015625 C 12.832031 -5.304688 14.148438 -4.953125 15.609375 -4.953125 Z M 15.609375 -4.953125 "/></g></g><g style="fill:#ffffff;fill-opacity:1;"><g transform="translate(133.843169, 37.616945)"><path style="stroke:none" d="M 14.46875 0.796875 C 12.601562 0.796875 10.890625 0.4375 9.328125 -0.28125 C 7.773438 -1 6.4375 -1.992188 5.3125 -3.265625 C 4.1875 -4.546875 3.3125 -6.03125 2.6875 -7.71875 C 2.070312 -9.40625 1.765625 -11.210938 1.765625 -13.140625 C 1.765625 -15.054688 2.066406 -16.851562 2.671875 -18.53125 C 3.273438 -20.207031 4.140625 -21.6875 5.265625 -22.96875 C 6.398438 -24.25 7.75 -25.25 9.3125 -25.96875 C 10.882812 -26.695312 12.625 -27.0625 14.53125 -27.0625 C 15.96875 -27.0625 17.269531 -26.804688 18.4375 -26.296875 C 19.601562 -25.796875 20.609375 -25.15625 21.453125 -24.375 C 22.296875 -23.601562 22.945312 -22.800781 23.40625 -21.96875 L 23.28125 -24.703125 L 23.28125 -35.96875 L 29.4375 -35.96875 L 29.4375 0 L 23.5625 0 L 23.5625 -4.421875 C 23.050781 -3.503906 22.359375 -2.648438 21.484375 -1.859375 C 20.617188 -1.066406 19.597656 -0.425781 18.421875 0.0625 C 17.242188 0.550781 15.925781 0.796875 14.46875 0.796875 Z M 15.59375 -4.90625 C 16.664062 -4.90625 17.664062 -5.113281 18.59375 -5.53125 C 19.53125 -5.945312 20.351562 -6.53125 21.0625 -7.28125 C 21.769531 -8.03125 22.320312 -8.898438 22.71875 -9.890625 C 23.125 -10.890625 23.328125 -11.972656 23.328125 -13.140625 C 23.328125 -14.296875 23.128906 -15.363281 22.734375 -16.34375 C 22.347656 -17.332031 21.800781 -18.203125 21.09375 -18.953125 C 20.382812 -19.703125 19.5625 -20.285156 18.625 -20.703125 C 17.6875 -21.117188 16.675781 -21.328125 15.59375 -21.328125 C 14.144531 -21.328125 12.832031 -20.972656 11.65625 -20.265625 C 10.476562 -19.566406 9.546875 -18.601562 8.859375 -17.375 C 8.179688 -16.144531 7.84375 -14.734375 7.84375 -13.140625 C 7.84375 -11.585938 8.175781 -10.1875 8.84375 -8.9375 C 9.507812 -7.695312 10.425781 -6.710938 11.59375 -5.984375 C 12.757812 -5.265625 14.09375 -4.90625 15.59375 -4.90625 Z M 15.59375 -4.90625 "/></g></g><g style="fill:#ffffff;fill-opacity:1;"><g transform="translate(163.42329, 37.616945)"><path style="stroke:none" d="M 28.609375 -13.59375 C 28.609375 -13.269531 28.597656 -12.960938 28.578125 -12.671875 C 28.566406 -12.378906 28.535156 -11.988281 28.484375 -11.5 L 7.96875 -11.5 C 8.1875 -10.070312 8.640625 -8.851562 9.328125 -7.84375 C 10.023438 -6.84375 10.882812 -6.070312 11.90625 -5.53125 C 12.925781 -5 14.039062 -4.734375 15.25 -4.734375 C 16.820312 -4.734375 18.09375 -5.039062 19.0625 -5.65625 C 20.03125 -6.28125 20.738281 -7.144531 21.1875 -8.25 L 27.921875 -8.25 C 27.597656 -7.070312 27.066406 -5.9375 26.328125 -4.84375 C 25.585938 -3.757812 24.679688 -2.796875 23.609375 -1.953125 C 22.535156 -1.109375 21.300781 -0.441406 19.90625 0.046875 C 18.519531 0.546875 17.007812 0.796875 15.375 0.796875 C 13.40625 0.796875 11.585938 0.4375 9.921875 -0.28125 C 8.265625 -1.007812 6.828125 -2.015625 5.609375 -3.296875 C 4.390625 -4.578125 3.441406 -6.054688 2.765625 -7.734375 C 2.097656 -9.421875 1.765625 -11.222656 1.765625 -13.140625 C 1.765625 -15.054688 2.097656 -16.851562 2.765625 -18.53125 C 3.441406 -20.207031 4.390625 -21.6875 5.609375 -22.96875 C 6.828125 -24.25 8.265625 -25.25 9.921875 -25.96875 C 11.585938 -26.695312 13.40625 -27.0625 15.375 -27.0625 C 17.351562 -27.0625 19.15625 -26.703125 20.78125 -25.984375 C 22.40625 -25.265625 23.800781 -24.28125 24.96875 -23.03125 C 26.132812 -21.78125 27.03125 -20.34375 27.65625 -18.71875 C 28.289062 -17.101562 28.609375 -15.394531 28.609375 -13.59375 Z M 8.234375 -16.28125 L 22.3125 -16.28125 C 22.21875 -17.269531 21.847656 -18.164062 21.203125 -18.96875 C 20.554688 -19.78125 19.722656 -20.429688 18.703125 -20.921875 C 17.679688 -21.421875 16.566406 -21.671875 15.359375 -21.671875 C 14.316406 -21.671875 13.316406 -21.476562 12.359375 -21.09375 C 11.410156 -20.707031 10.570312 -20.117188 9.84375 -19.328125 C 9.125 -18.535156 8.585938 -17.519531 8.234375 -16.28125 Z M 8.234375 -16.28125 "/></g></g><g style="fill:#ffffff;fill-opacity:1;"><g transform="translate(189.9887, 37.616945)"><path style="stroke:none" d="M 16.484375 0 L 10.734375 0 L 0.25 -26.265625 L 6.828125 -26.265625 L 12.921875 -10.40625 L 13.625 -7.640625 L 14.28125 -10.375 L 20.390625 -26.265625 L 27 -26.265625 Z M 16.484375 0 "/></g></g></g></g></g></g></g></g></svg>